<svg xmlns="http://www.w3.org/2000/svg" xmlns:xlink="http://www.w3.org/1999/xlink" width="177" height="145" viewBox="0 0 177 145">
  <defs>
    <polygon id="d" points="-15.062 15.062 97.062 15.062 97.062 97.062 -15.062 97.062"/>
    <filter id="c" width="200%" height="200%" x="-50%" y="-50%" filterUnits="objectBoundingBox">
      <feOffset dx="1" in="SourceAlpha" result="shadowOffsetOuter1"/>
      <feGaussianBlur in="shadowOffsetOuter1" result="shadowBlurOuter1" stdDeviation="1"/>
      <feColorMatrix in="shadowBlurOuter1" values="0 0 0 0 0 0 0 0 0 0 0 0 0 0 0 0 0 0 0.4 0"/>
    </filter>
    <polygon id="f" points="-15.062 15.062 97.062 15.062 97.062 97.062 -15.062 97.062"/>
    <filter id="e" width="200%" height="200%" x="-50%" y="-50%" filterUnits="objectBoundingBox">
      <feOffset dx="1" in="SourceAlpha" result="shadowOffsetOuter1"/>
      <feGaussianBlur in="shadowOffsetOuter1" result="shadowBlurOuter1" stdDeviation="1"/>
      <feColorMatrix in="shadowBlurOuter1" values="0 0 0 0 0 0 0 0 0 0 0 0 0 0 0 0 0 0 0.4 0"/>
    </filter>
    <polygon id="h" points="-15.062 15.062 97.062 15.062 97.062 97.062 -15.062 97.062"/>
    <filter id="g" width="200%" height="200%" x="-50%" y="-50%" filterUnits="objectBoundingBox">
      <feOffset dx="1" in="SourceAlpha" result="shadowOffsetOuter1"/>
      <feGaussianBlur in="shadowOffsetOuter1" result="shadowBlurOuter1" stdDeviation="1"/>
      <feColorMatrix in="shadowBlurOuter1" values="0 0 0 0 0 0 0 0 0 0 0 0 0 0 0 0 0 0 0.4 0"/>
    </filter>
    <ellipse id="j" cx="15.064" cy="15.065" rx="15.064" ry="15.065"/>
    <filter id="i" width="200%" height="200%" x="-50%" y="-50%" filterUnits="objectBoundingBox">
      <feOffset dy="1" in="SourceAlpha" result="shadowOffsetOuter1"/>
      <feGaussianBlur in="shadowOffsetOuter1" result="shadowBlurOuter1" stdDeviation="2"/>
      <feColorMatrix in="shadowBlurOuter1" values="0 0 0 0 0 0 0 0 0 0 0 0 0 0 0 0 0 0 0.3 0"/>
    </filter>
    <path id="a" d="M5.68434189e-14,3 C5.68434189e-14,1.34314575 1.34735794,-4.79616347e-14 3.00039696,-4.79616347e-14 L17.9259259,-4.79616347e-14 L17.9259259,6 L3.00039696,6 C1.34332348,6 5.68434189e-14,4.65348288 5.68434189e-14,3 L5.68434189e-14,3 Z"/>
    <mask id="k" width="17.926" height="6" x="0" y="0" fill="white">
      <use xlink:href="#a"/>
    </mask>
    <polygon id="b" points="21.796 3 17.722 5.143 17.722 .857"/>
    <mask id="l" width="5.114" height="5.326" x="-.52" y="-.52">
      <rect width="5.114" height="5.326" x="17.202" y=".337" fill="white"/>
      <use fill="black" xlink:href="#b"/>
    </mask>
  </defs>
  <g fill="none" fill-rule="evenodd">
    <ellipse cx="112.979" cy="80.974" fill="#B2B2B2" fill-opacity=".11" rx="64.021" ry="64.026"/>
    <ellipse cx="64.021" cy="64.026" fill="#5E90FF" fill-opacity=".13" rx="64.021" ry="64.026"/>
    <g transform="rotate(-6 243.27 -278.704)">
      <g transform="rotate(90 41 56.062)">
        <use fill="black" filter="url(#c)" xlink:href="#d"/>
        <use fill="#FFFFFF" xlink:href="#d"/>
      </g>
      <rect width="20" height="3" x="6" y="5" fill="#D8D8D8"/>
      <rect width="25" height="3" x="6" y="10" fill="#D8D8D8"/>
      <g transform="translate(6 23)">
        <circle cx="3" cy="6" r="1" fill="#D8D8D8"/>
        <circle cx="3" cy="9" r="1" fill="#474747"/>
        <circle cx="3" cy="12" r="1" fill="#D8D8D8"/>
        <circle cx="3" cy="15" r="1" fill="#D8D8D8"/>
        <rect width="25" height="2" x="6" y="5" fill="#D8D8D8"/>
        <rect width="31" height="2" x="6" y="8" fill="#D8D8D8"/>
        <rect width="20" height="2" x="6" y="11" fill="#D8D8D8"/>
        <rect width="25" height="2" x="6" y="14" fill="#D8D8D8"/>
        <rect width="61" height="3" fill="#5E90FF"/>
      </g>
      <g transform="translate(6 43)">
        <circle cx="3" cy="6" r="1" fill="#D8D8D8"/>
        <circle cx="3" cy="9" r="1" fill="#D8D8D8"/>
        <circle cx="3" cy="12" r="1" fill="#D8D8D8"/>
        <circle cx="3" cy="15" r="1" fill="#474747"/>
        <rect width="25" height="2" x="6" y="5" fill="#D8D8D8"/>
        <rect width="31" height="2" x="6" y="8" fill="#D8D8D8"/>
        <rect width="20" height="2" x="6" y="11" fill="#D8D8D8"/>
        <rect width="42" height="2" x="6" y="14" fill="#D8D8D8"/>
        <rect width="61" height="3" fill="#F58C76"/>
      </g>
      <g transform="translate(6 83)">
        <circle cx="3" cy="6" r="1" fill="#474747"/>
        <circle cx="3" cy="9" r="1" fill="#D8D8D8"/>
        <circle cx="3" cy="12" r="1" fill="#D8D8D8"/>
        <circle cx="3" cy="15" r="1" fill="#D8D8D8"/>
        <rect width="34" height="2" x="6" y="5" fill="#D8D8D8"/>
        <rect width="31" height="2" x="6" y="8" fill="#D8D8D8"/>
        <rect width="29" height="2" x="6" y="11" fill="#D8D8D8"/>
        <rect width="42" height="2" x="6" y="14" fill="#D8D8D8"/>
        <rect width="61" height="3" fill="#F58C76"/>
      </g>
      <g transform="translate(6 63)">
        <ellipse cx="3" cy="6" fill="#D8D8D8" rx="1" ry="1"/>
        <ellipse cx="3" cy="9" fill="#D8D8D8" rx="1" ry="1"/>
        <circle cx="3" cy="12" r="1" fill="#D8D8D8"/>
        <ellipse cx="3" cy="15" fill="#474747" rx="1" ry="1"/>
        <rect width="13" height="2" x="6" y="5" fill="#D8D8D8"/>
        <rect width="44" height="2" x="6" y="8" fill="#D8D8D8"/>
        <rect width="35" height="2" x="6" y="11" fill="#D8D8D8"/>
        <rect width="25" height="2" x="6" y="14" fill="#D8D8D8"/>
        <rect width="61" height="3" fill="#5E90FF"/>
      </g>
    </g>
    <g transform="rotate(7 -141.873 476.522)">
      <g transform="rotate(90 41 56.062)">
        <use fill="black" filter="url(#e)" xlink:href="#f"/>
        <use fill="#FFFFFF" xlink:href="#f"/>
      </g>
      <rect width="20" height="3" x="6" y="5" fill="#D8D8D8"/>
      <rect width="25" height="3" x="6" y="10" fill="#D8D8D8"/>
      <g transform="translate(6 23)">
        <circle cx="3" cy="6" r="1" fill="#D8D8D8"/>
        <circle cx="3" cy="9" r="1" fill="#474747"/>
        <circle cx="3" cy="12" r="1" fill="#D8D8D8"/>
        <circle cx="3" cy="15" r="1" fill="#D8D8D8"/>
        <rect width="25" height="2" x="6" y="5" fill="#D8D8D8"/>
        <rect width="31" height="2" x="6" y="8" fill="#D8D8D8"/>
        <rect width="20" height="2" x="6" y="11" fill="#D8D8D8"/>
        <rect width="25" height="2" x="6" y="14" fill="#D8D8D8"/>
        <rect width="61" height="3" fill="#5E90FF"/>
      </g>
      <g transform="translate(6 43)">
        <circle cx="3" cy="6" r="1" fill="#D8D8D8"/>
        <circle cx="3" cy="9" r="1" fill="#D8D8D8"/>
        <circle cx="3" cy="12" r="1" fill="#D8D8D8"/>
        <circle cx="3" cy="15" r="1" fill="#474747"/>
        <rect width="25" height="2" x="6" y="5" fill="#D8D8D8"/>
        <rect width="31" height="2" x="6" y="8" fill="#D8D8D8"/>
        <rect width="20" height="2" x="6" y="11" fill="#D8D8D8"/>
        <rect width="42" height="2" x="6" y="14" fill="#D8D8D8"/>
        <rect width="61" height="3" fill="#F58C76"/>
      </g>
      <g transform="translate(6 83)">
        <circle cx="3" cy="6" r="1" fill="#474747"/>
        <circle cx="3" cy="9" r="1" fill="#D8D8D8"/>
        <circle cx="3" cy="12" r="1" fill="#D8D8D8"/>
        <circle cx="3" cy="15" r="1" fill="#D8D8D8"/>
        <rect width="34" height="2" x="6" y="5" fill="#D8D8D8"/>
        <rect width="31" height="2" x="6" y="8" fill="#D8D8D8"/>
        <rect width="29" height="2" x="6" y="11" fill="#D8D8D8"/>
        <rect width="42" height="2" x="6" y="14" fill="#D8D8D8"/>
        <rect width="61" height="3" fill="#F58C76"/>
      </g>
      <g transform="translate(6 63)">
        <ellipse cx="3" cy="6" fill="#D8D8D8" rx="1" ry="1"/>
        <ellipse cx="3" cy="9" fill="#D8D8D8" rx="1" ry="1"/>
        <circle cx="3" cy="12" r="1" fill="#D8D8D8"/>
        <ellipse cx="3" cy="15" fill="#474747" rx="1" ry="1"/>
        <rect width="13" height="2" x="6" y="5" fill="#D8D8D8"/>
        <rect width="44" height="2" x="6" y="8" fill="#D8D8D8"/>
        <rect width="35" height="2" x="6" y="11" fill="#D8D8D8"/>
        <rect width="25" height="2" x="6" y="14" fill="#D8D8D8"/>
        <rect width="61" height="3" fill="#5E90FF"/>
      </g>
    </g>
    <g transform="translate(43 25)">
      <g transform="rotate(90 41 56.062)">
        <use fill="black" filter="url(#g)" xlink:href="#h"/>
        <use fill="#FFFFFF" xlink:href="#h"/>
      </g>
      <rect width="20" height="3" x="6" y="5" fill="#D8D8D8"/>
      <rect width="25" height="3" x="6" y="10" fill="#D8D8D8"/>
      <g transform="translate(6 23)">
        <circle cx="3" cy="6" r="1" fill="#D8D8D8"/>
        <circle cx="3" cy="9" r="1" fill="#474747"/>
        <circle cx="3" cy="12" r="1" fill="#D8D8D8"/>
        <circle cx="3" cy="15" r="1" fill="#D8D8D8"/>
        <rect width="25" height="2" x="6" y="5" fill="#D8D8D8"/>
        <rect width="31" height="2" x="6" y="8" fill="#D8D8D8"/>
        <rect width="20" height="2" x="6" y="11" fill="#D8D8D8"/>
        <rect width="25" height="2" x="6" y="14" fill="#D8D8D8"/>
        <rect width="61" height="3" fill="#5E90FF"/>
      </g>
      <g transform="translate(6 43)">
        <circle cx="3" cy="6" r="1" fill="#D8D8D8"/>
        <circle cx="3" cy="9" r="1" fill="#D8D8D8"/>
        <circle cx="3" cy="12" r="1" fill="#D8D8D8"/>
        <circle cx="3" cy="15" r="1" fill="#474747"/>
        <rect width="25" height="2" x="6" y="5" fill="#D8D8D8"/>
        <rect width="31" height="2" x="6" y="8" fill="#D8D8D8"/>
        <rect width="20" height="2" x="6" y="11" fill="#D8D8D8"/>
        <rect width="42" height="2" x="6" y="14" fill="#D8D8D8"/>
        <rect width="61" height="3" fill="#F58C76"/>
      </g>
      <g transform="translate(6 83)">
        <circle cx="3" cy="6" r="1" fill="#474747"/>
        <circle cx="3" cy="9" r="1" fill="#D8D8D8"/>
        <circle cx="3" cy="12" r="1" fill="#D8D8D8"/>
        <circle cx="3" cy="15" r="1" fill="#D8D8D8"/>
        <rect width="34" height="2" x="6" y="5" fill="#D8D8D8"/>
        <rect width="31" height="2" x="6" y="8" fill="#D8D8D8"/>
        <rect width="29" height="2" x="6" y="11" fill="#D8D8D8"/>
        <rect width="42" height="2" x="6" y="14" fill="#D8D8D8"/>
        <rect width="61" height="3" fill="#F58C76"/>
      </g>
      <g transform="translate(6 63)">
        <ellipse cx="3" cy="6" fill="#D8D8D8" rx="1" ry="1"/>
        <ellipse cx="3" cy="9" fill="#D8D8D8" rx="1" ry="1"/>
        <circle cx="3" cy="12" r="1" fill="#D8D8D8"/>
        <ellipse cx="3" cy="15" fill="#474747" rx="1" ry="1"/>
        <rect width="13" height="2" x="6" y="5" fill="#D8D8D8"/>
        <rect width="44" height="2" x="6" y="8" fill="#D8D8D8"/>
        <rect width="35" height="2" x="6" y="11" fill="#D8D8D8"/>
        <rect width="25" height="2" x="6" y="14" fill="#D8D8D8"/>
        <rect width="61" height="3" fill="#5E90FF"/>
      </g>
    </g>
    <g transform="translate(128.043 17.576)">
      <use fill="black" filter="url(#i)" xlink:href="#j"/>
      <use fill="#5E90FF" xlink:href="#j"/>
      <ellipse cx="17.521" cy="17.989" fill="#5483EC" rx="11.564" ry="11.565"/>
      <g transform="rotate(-43 28.346 3.874)">
        <g transform="rotate(-180 11 3)">
          <use fill="#F58C76" stroke="#8B94A6" stroke-width="1.2" mask="url(#k)" xlink:href="#a"/>
          <use fill="#FFFFFF" xlink:href="#b"/>
          <use stroke="#8B94A6" stroke-width="1.04" mask="url(#l)" xlink:href="#b"/>
        </g>
        <path stroke="#FFFFFF" stroke-linecap="square" stroke-width=".5" d="M5.05185185 1.97142857L18.0074074 1.97142857M5.05185185 4.11428571L14.8771028 4.11428571"/>
      </g>
    </g>
  </g>
</svg>
