<svg xmlns="http://www.w3.org/2000/svg" xmlns:xlink="http://www.w3.org/1999/xlink" width="177" height="145" viewBox="0 0 177 145">
  <defs>
    <rect id="a" width="138.085" height="81.602" rx="16"/>
    <mask id="b" width="138.085" height="81.602" x="0" y="0" fill="white">
      <use xlink:href="#a"/>
    </mask>
    <ellipse id="c" cx="15.064" cy="15.065" rx="15.064" ry="15.065"/>
    <filter id="d" width="200%" height="200%" x="-50%" y="-50%" filterUnits="objectBoundingBox">
      <feOffset dy="1" in="SourceAlpha" result="shadowOffsetOuter1"/>
      <feGaussianBlur in="shadowOffsetOuter1" result="shadowBlurOuter1" stdDeviation="2"/>
      <feColorMatrix in="shadowBlurOuter1" values="0 0 0 0 0 0 0 0 0 0 0 0 0 0 0 0 0 0 0.3 0"/>
    </filter>
  </defs>
  <g fill="none" fill-rule="evenodd">
    <ellipse cx="112.979" cy="80.974" fill="#B2B2B2" fill-opacity=".11" rx="64.021" ry="64.026"/>
    <ellipse cx="64.021" cy="64.026" fill="#5E90FF" fill-opacity=".13" rx="64.021" ry="64.026"/>
    <g transform="translate(15.064 32.013)">
      <use fill="#F2F4F7" stroke="#8993A7" stroke-opacity=".66" stroke-width="2.8" mask="url(#b)" xlink:href="#a"/>
      <g transform="translate(10.67 9.416)">
        <rect width="14.672" height="6.905" fill="#5E90FF"/>
        <rect width="89.722" height="28.247" y="22.597" fill="#D3D3D3"/>
        <rect width="89.722" height="6.905" y="54.61" fill="#F58C76"/>
        <rect width="25.393" height="38.918" x="91.979" y="22.597" fill="#E5E5E5"/>
        <rect width="117.372" height="4.394" y="11.926" fill="#D4D4D4"/>
      </g>
    </g>
    <g transform="translate(128.043 17.576)">
      <mask id="e" fill="white">
        <use xlink:href="#c"/>
      </mask>
      <use fill="black" filter="url(#d)" xlink:href="#c"/>
      <use fill="#5E90FF" xlink:href="#c"/>
      <ellipse cx="18.564" cy="18.565" fill="#5483EC" mask="url(#e)" rx="11.564" ry="11.565"/>
      <path fill="#FFFFFF" d="M16.1771752,13.9960346 L16.1771752,8.82669374 L16.1771752,7.75717495 L14.0382946,7.75717495 L14.0382946,8.82669374 L14.0382946,13.9960346 L9.04757306,13.9960346 L7.97813274,13.9960346 L7.97813274,16.1350722 L9.04757306,16.1350722 L14.0382946,16.1350722 L14.0382946,21.3095049 L14.0382946,22.3790237 L16.1771752,22.3790237 L16.1771752,21.3095049 L16.1771752,16.1350722 L21.5294684,16.1350722 L22.5989087,16.1350722 L22.5989087,13.9960346 L21.5294684,13.9960346 L16.1771752,13.9960346 Z" mask="url(#e)"/>
    </g>
  </g>
</svg>
