<svg xmlns="http://www.w3.org/2000/svg" xmlns:xlink="http://www.w3.org/1999/xlink" width="177" height="146" viewBox="0 0 177 146">
  <defs>
    <polygon id="c" points="-15.062 15.062 97.062 15.062 97.062 97.062 -15.062 97.062"/>
    <filter id="b" width="200%" height="200%" x="-50%" y="-50%" filterUnits="objectBoundingBox">
      <feOffset dx="1" in="SourceAlpha" result="shadowOffsetOuter1"/>
      <feGaussianBlur in="shadowOffsetOuter1" result="shadowBlurOuter1" stdDeviation="1"/>
      <feColorMatrix in="shadowBlurOuter1" values="0 0 0 0 0 0 0 0 0 0 0 0 0 0 0 0 0 0 0.4 0"/>
    </filter>
    <polygon id="e" points="-15.062 15.062 97.062 15.062 97.062 97.062 -15.062 97.062"/>
    <filter id="d" width="200%" height="200%" x="-50%" y="-50%" filterUnits="objectBoundingBox">
      <feOffset dx="1" in="SourceAlpha" result="shadowOffsetOuter1"/>
      <feGaussianBlur in="shadowOffsetOuter1" result="shadowBlurOuter1" stdDeviation="1"/>
      <feColorMatrix in="shadowBlurOuter1" values="0 0 0 0 0 0 0 0 0 0 0 0 0 0 0 0 0 0 0.4 0"/>
    </filter>
    <polygon id="g" points="-15.062 15.062 97.062 15.062 97.062 97.062 -15.062 97.062"/>
    <filter id="f" width="200%" height="200%" x="-50%" y="-50%" filterUnits="objectBoundingBox">
      <feOffset dx="1" in="SourceAlpha" result="shadowOffsetOuter1"/>
      <feGaussianBlur in="shadowOffsetOuter1" result="shadowBlurOuter1" stdDeviation="1"/>
      <feColorMatrix in="shadowBlurOuter1" values="0 0 0 0 0 0 0 0 0 0 0 0 0 0 0 0 0 0 0.4 0"/>
    </filter>
    <ellipse id="i" cx="15.064" cy="15.065" rx="15.064" ry="15.065"/>
    <filter id="h" width="200%" height="200%" x="-50%" y="-50%" filterUnits="objectBoundingBox">
      <feOffset dy="1" in="SourceAlpha" result="shadowOffsetOuter1"/>
      <feGaussianBlur in="shadowOffsetOuter1" result="shadowBlurOuter1" stdDeviation="2"/>
      <feColorMatrix in="shadowBlurOuter1" values="0 0 0 0 0 0 0 0 0 0 0 0 0 0 0 0 0 0 0.3 0"/>
    </filter>
    <path id="a" d="M10.3797047,0.279881612 C11.2745691,-0.0929785427 12.7239177,-0.0936090654 13.6202953,0.279881612 L23.3282841,4.32487697 C24.2231485,4.69773712 24.2246618,5.30163235 23.3282841,5.67512303 L13.6202953,9.72011839 C12.7254309,10.0929785 11.2760823,10.0936091 10.3797047,9.72011839 L0.671715868,5.67512303 C-0.223148502,5.30226288 -0.224661757,4.69836765 0.671715868,4.32487697 L10.3797047,0.279881612 Z"/>
    <mask id="j" width="24" height="10" x="0" y="0" fill="white">
      <use xlink:href="#a"/>
    </mask>
    <text id="l" fill="#F58C76" font-family="ProximaNova-Bold, Proxima Nova" font-size="60" font-weight="bold">
      <tspan x="56.36" y="93">A+</tspan>
    </text>
    <filter id="k" width="200%" height="200%" x="-50%" y="-50%" filterUnits="objectBoundingBox">
      <feOffset dx="2" dy="2" in="SourceAlpha" result="shadowOffsetOuter1"/>
      <feGaussianBlur in="shadowOffsetOuter1" result="shadowBlurOuter1" stdDeviation="6.5"/>
      <feColorMatrix in="shadowBlurOuter1" values="0 0 0 0 0.368627451 0 0 0 0 0.564705882 0 0 0 0 1 0 0 0 0.22 0"/>
    </filter>
  </defs>
  <g fill="none" fill-rule="evenodd">
    <ellipse cx="112.979" cy="80.974" fill="#B2B2B2" fill-opacity=".11" rx="64.021" ry="64.026"/>
    <ellipse cx="64.021" cy="64.026" fill="#5E90FF" fill-opacity=".13" rx="64.021" ry="64.026"/>
    <g transform="rotate(-6 242.069 -316.118)">
      <g transform="rotate(90 41 56.062)">
        <use fill="black" filter="url(#b)" xlink:href="#c"/>
        <use fill="#FFFFFF" xlink:href="#c"/>
      </g>
      <rect width="20" height="3" x="6" y="5" fill="#D8D8D8"/>
      <rect width="25" height="3" x="6" y="10" fill="#D8D8D8"/>
      <g transform="translate(6 23)">
        <circle cx="3" cy="6" r="1" fill="#D8D8D8"/>
        <circle cx="3" cy="9" r="1" fill="#474747"/>
        <circle cx="3" cy="12" r="1" fill="#D8D8D8"/>
        <circle cx="3" cy="15" r="1" fill="#D8D8D8"/>
        <rect width="25" height="2" x="6" y="5" fill="#D8D8D8"/>
        <rect width="31" height="2" x="6" y="8" fill="#D8D8D8"/>
        <rect width="20" height="2" x="6" y="11" fill="#D8D8D8"/>
        <rect width="25" height="2" x="6" y="14" fill="#D8D8D8"/>
        <rect width="61" height="3" fill="#5E90FF"/>
      </g>
      <g transform="translate(6 43)">
        <circle cx="3" cy="6" r="1" fill="#D8D8D8"/>
        <circle cx="3" cy="9" r="1" fill="#D8D8D8"/>
        <circle cx="3" cy="12" r="1" fill="#D8D8D8"/>
        <circle cx="3" cy="15" r="1" fill="#474747"/>
        <rect width="25" height="2" x="6" y="5" fill="#D8D8D8"/>
        <rect width="31" height="2" x="6" y="8" fill="#D8D8D8"/>
        <rect width="20" height="2" x="6" y="11" fill="#D8D8D8"/>
        <rect width="42" height="2" x="6" y="14" fill="#D8D8D8"/>
        <rect width="61" height="3" fill="#F58C76"/>
      </g>
      <g transform="translate(6 83)">
        <circle cx="3" cy="6" r="1" fill="#474747"/>
        <circle cx="3" cy="9" r="1" fill="#D8D8D8"/>
        <circle cx="3" cy="12" r="1" fill="#D8D8D8"/>
        <circle cx="3" cy="15" r="1" fill="#D8D8D8"/>
        <rect width="34" height="2" x="6" y="5" fill="#D8D8D8"/>
        <rect width="31" height="2" x="6" y="8" fill="#D8D8D8"/>
        <rect width="29" height="2" x="6" y="11" fill="#D8D8D8"/>
        <rect width="42" height="2" x="6" y="14" fill="#D8D8D8"/>
        <rect width="61" height="3" fill="#F58C76"/>
      </g>
      <g transform="translate(6 63)">
        <ellipse cx="3" cy="6" fill="#D8D8D8" rx="1" ry="1"/>
        <ellipse cx="3" cy="9" fill="#D8D8D8" rx="1" ry="1"/>
        <circle cx="3" cy="12" r="1" fill="#D8D8D8"/>
        <ellipse cx="3" cy="15" fill="#474747" rx="1" ry="1"/>
        <rect width="13" height="2" x="6" y="5" fill="#D8D8D8"/>
        <rect width="44" height="2" x="6" y="8" fill="#D8D8D8"/>
        <rect width="35" height="2" x="6" y="11" fill="#D8D8D8"/>
        <rect width="25" height="2" x="6" y="14" fill="#D8D8D8"/>
        <rect width="61" height="3" fill="#5E90FF"/>
      </g>
    </g>
    <g transform="rotate(7 -141.103 510.32)">
      <g transform="rotate(90 41 56.062)">
        <use fill="black" filter="url(#d)" xlink:href="#e"/>
        <use fill="#FFFFFF" xlink:href="#e"/>
      </g>
      <rect width="20" height="3" x="6" y="5" fill="#D8D8D8"/>
      <rect width="25" height="3" x="6" y="10" fill="#D8D8D8"/>
      <g transform="translate(6 23)">
        <circle cx="3" cy="6" r="1" fill="#D8D8D8"/>
        <circle cx="3" cy="9" r="1" fill="#474747"/>
        <circle cx="3" cy="12" r="1" fill="#D8D8D8"/>
        <circle cx="3" cy="15" r="1" fill="#D8D8D8"/>
        <rect width="25" height="2" x="6" y="5" fill="#D8D8D8"/>
        <rect width="31" height="2" x="6" y="8" fill="#D8D8D8"/>
        <rect width="20" height="2" x="6" y="11" fill="#D8D8D8"/>
        <rect width="25" height="2" x="6" y="14" fill="#D8D8D8"/>
        <rect width="61" height="3" fill="#5E90FF"/>
      </g>
      <g transform="translate(6 43)">
        <circle cx="3" cy="6" r="1" fill="#D8D8D8"/>
        <circle cx="3" cy="9" r="1" fill="#D8D8D8"/>
        <circle cx="3" cy="12" r="1" fill="#D8D8D8"/>
        <circle cx="3" cy="15" r="1" fill="#474747"/>
        <rect width="25" height="2" x="6" y="5" fill="#D8D8D8"/>
        <rect width="31" height="2" x="6" y="8" fill="#D8D8D8"/>
        <rect width="20" height="2" x="6" y="11" fill="#D8D8D8"/>
        <rect width="42" height="2" x="6" y="14" fill="#D8D8D8"/>
        <rect width="61" height="3" fill="#F58C76"/>
      </g>
      <g transform="translate(6 83)">
        <circle cx="3" cy="6" r="1" fill="#474747"/>
        <circle cx="3" cy="9" r="1" fill="#D8D8D8"/>
        <circle cx="3" cy="12" r="1" fill="#D8D8D8"/>
        <circle cx="3" cy="15" r="1" fill="#D8D8D8"/>
        <rect width="34" height="2" x="6" y="5" fill="#D8D8D8"/>
        <rect width="31" height="2" x="6" y="8" fill="#D8D8D8"/>
        <rect width="29" height="2" x="6" y="11" fill="#D8D8D8"/>
        <rect width="42" height="2" x="6" y="14" fill="#D8D8D8"/>
        <rect width="61" height="3" fill="#F58C76"/>
      </g>
      <g transform="translate(6 63)">
        <ellipse cx="3" cy="6" fill="#D8D8D8" rx="1" ry="1"/>
        <ellipse cx="3" cy="9" fill="#D8D8D8" rx="1" ry="1"/>
        <circle cx="3" cy="12" r="1" fill="#D8D8D8"/>
        <ellipse cx="3" cy="15" fill="#474747" rx="1" ry="1"/>
        <rect width="13" height="2" x="6" y="5" fill="#D8D8D8"/>
        <rect width="44" height="2" x="6" y="8" fill="#D8D8D8"/>
        <rect width="35" height="2" x="6" y="11" fill="#D8D8D8"/>
        <rect width="25" height="2" x="6" y="14" fill="#D8D8D8"/>
        <rect width="61" height="3" fill="#5E90FF"/>
      </g>
    </g>
    <g transform="translate(46.37 25)">
      <g transform="rotate(90 41 56.062)">
        <use fill="black" filter="url(#f)" xlink:href="#g"/>
        <use fill="#FFFFFF" xlink:href="#g"/>
      </g>
      <rect width="20" height="3" x="6" y="5" fill="#D8D8D8"/>
      <rect width="25" height="3" x="6" y="10" fill="#D8D8D8"/>
      <g transform="translate(6 23)">
        <circle cx="3" cy="6" r="1" fill="#D8D8D8"/>
        <circle cx="3" cy="9" r="1" fill="#474747"/>
        <circle cx="3" cy="12" r="1" fill="#D8D8D8"/>
        <circle cx="3" cy="15" r="1" fill="#D8D8D8"/>
        <rect width="25" height="2" x="6" y="5" fill="#D8D8D8"/>
        <rect width="31" height="2" x="6" y="8" fill="#D8D8D8"/>
        <rect width="20" height="2" x="6" y="11" fill="#D8D8D8"/>
        <rect width="25" height="2" x="6" y="14" fill="#D8D8D8"/>
        <rect width="61" height="3" fill="#5E90FF"/>
      </g>
      <g transform="translate(6 43)">
        <circle cx="3" cy="6" r="1" fill="#D8D8D8"/>
        <circle cx="3" cy="9" r="1" fill="#D8D8D8"/>
        <circle cx="3" cy="12" r="1" fill="#D8D8D8"/>
        <circle cx="3" cy="15" r="1" fill="#474747"/>
        <rect width="25" height="2" x="6" y="5" fill="#D8D8D8"/>
        <rect width="31" height="2" x="6" y="8" fill="#D8D8D8"/>
        <rect width="20" height="2" x="6" y="11" fill="#D8D8D8"/>
        <rect width="42" height="2" x="6" y="14" fill="#D8D8D8"/>
        <rect width="61" height="3" fill="#F58C76"/>
      </g>
      <g transform="translate(6 83)">
        <circle cx="3" cy="6" r="1" fill="#474747"/>
        <circle cx="3" cy="9" r="1" fill="#D8D8D8"/>
        <circle cx="3" cy="12" r="1" fill="#D8D8D8"/>
        <circle cx="3" cy="15" r="1" fill="#D8D8D8"/>
        <rect width="34" height="2" x="6" y="5" fill="#D8D8D8"/>
        <rect width="31" height="2" x="6" y="8" fill="#D8D8D8"/>
        <rect width="29" height="2" x="6" y="11" fill="#D8D8D8"/>
        <rect width="42" height="2" x="6" y="14" fill="#D8D8D8"/>
        <rect width="61" height="3" fill="#F58C76"/>
      </g>
      <g transform="translate(6 63)">
        <ellipse cx="3" cy="6" fill="#D8D8D8" rx="1" ry="1"/>
        <ellipse cx="3" cy="9" fill="#D8D8D8" rx="1" ry="1"/>
        <circle cx="3" cy="12" r="1" fill="#D8D8D8"/>
        <ellipse cx="3" cy="15" fill="#474747" rx="1" ry="1"/>
        <rect width="13" height="2" x="6" y="5" fill="#D8D8D8"/>
        <rect width="44" height="2" x="6" y="8" fill="#D8D8D8"/>
        <rect width="35" height="2" x="6" y="11" fill="#D8D8D8"/>
        <rect width="25" height="2" x="6" y="14" fill="#D8D8D8"/>
        <rect width="61" height="3" fill="#5E90FF"/>
      </g>
    </g>
    <g transform="translate(128.043 17.576)">
      <use fill="black" filter="url(#h)" xlink:href="#i"/>
      <use fill="#5E90FF" xlink:href="#i"/>
      <ellipse cx="16.521" cy="17.989" fill="#5483EC" rx="11.564" ry="11.565"/>
      <g transform="translate(3 7)">
        <path stroke="#FFFFFF" stroke-width=".84" d="M5,7 L5,13.0870145 C5,13.2379509 5.06876489,13.4737332 5.15370567,13.594564 C5.15370567,13.594564 6.35381489,16 11.7775103,16 C17.2012058,16 17.8905312,13.6039133 17.8905312,13.6039133 C17.9509892,13.4693744 18,13.2274649 18,13.0870145 L18,7 C18,7 16.4584239,7.62131705 14.3385621,8.56000802 C13.1839096,9.07129693 12.1408565,9.57124929 11.5,9.55279351 C10.8591435,9.53433773 10.3500951,9.39543453 9.31363319,8.95015607 C7.20122275,8.04263513 5,7 5,7 Z"/>
        <use stroke="#FFFFFF" stroke-linecap="round" stroke-linejoin="round" stroke-width="1.68" mask="url(#j)" xlink:href="#a"/>
        <path stroke="#FFFFFF" stroke-linecap="round" stroke-width=".56" d="M7 10L7 12.9829291C7 13.2584389 7.19281006 13.5817011 7.44152546 13.7105894L8 14M12 5L4.67173867 5.96658725C3.7484629 6.08836602 3 6.94089622 3 7.87208864L3 9"/>
        <circle cx="2.5" cy="9.5" r=".5" fill="#FFFFFF"/>
        <path stroke="#FFFFFF" stroke-linecap="round" stroke-linejoin="round" stroke-width=".56" d="M2.67698284,9.38582854 C2.85605504,8.83265205 3.14622777,8.83527238 3.32322026,9.38582854 L3.55735759,10.1141405 C3.73519246,10.667317 3.91983624,11.5730469 3.9720536,12.1629305 L3.99660685,12.4403012 C4.04780226,13.0186402 3.74485324,13.183734 3.29814322,12.7898178 L3.21056866,12.7125931 C3.09464415,12.610369 2.90030593,12.6160916 2.79098212,12.7125931 L2.70349652,12.7898178 C2.2669942,13.1751241 1.95244124,13.0301848 2.00313899,12.4403012 L2.0269777,12.1629305 C2.07668324,11.5845915 2.26299248,10.6646967 2.44121644,10.1141405 L2.67698284,9.38582854 Z"/>
      </g>
    </g>
    <g fill="#F58C76">
      <use filter="url(#k)" xlink:href="#l"/>
      <use xlink:href="#l"/>
    </g>
  </g>
</svg>
